# xmcd
#
# Track frame offsets:
#	150
#	18344
#	40522
#	55634
#	70966
#	85524
#	101818
#	117826
#	131020
#	148498
#	160610
#	171960
#
# Disc length: 2482 seconds
# Revision: 0
# Processed by: cddbd v1.5.2PL0 Copyright (c) Steve Scherf et al.
# Submitted via: dBpowerAMP V12.0
#
DISCID=9b09b00c
DTITLE=Lamont Cranston Band - Up From the Alley [Waterhouse Records] (L)
DYEAR=1980
DGENRE=Blues
TTITLE0=Keep On Drivin'
TTITLE1=Route 66
TTITLE2=My Baby Don't Rock Me Now
TTITLE3=Oughta Be A Law
TTITLE4=Don't Go
TTITLE5=Where's My Baby
TTITLE6=Workin' For Rosie
TTITLE7=One More Chance
TTITLE8=Double-Eye Whammy
TTITLE9=Shake It Baby
TTITLE10=Fattening Frogs For Snakes
TTITLE11=Tore Up
EXTD=
EXTT0=
EXTT1=
EXTT2=
EXTT3=
EXTT4=
EXTT5=
EXTT6=
EXTT7=
EXTT8=
EXTT9=
EXTT10=
EXTT11=
PLAYORDER=
